Coordinates
version=1
nRows=7
nColumns=63
inDegrees=yes

Units are S.I. units (second, meters, Newtons, ...)
If the header above contains a line with 'inDegrees', this indicates whether rotational values are in degrees (yes) or radians (no).

endheader
time	pelvis_tilt	pelvis_list	pelvis_rotation	pelvis_tx	pelvis_ty	pelvis_tz	hip_flexion_r	hip_adduction_r	hip_rotation_r	knee_angle_r	knee_angle_r_beta	ankle_angle_r	subtalar_angle_r	mtp_angle_r	hip_flexion_l	hip_adduction_l	hip_rotation_l	knee_angle_l	knee_angle_l_beta	ankle_angle_l	subtalar_angle_l	mtp_angle_l	L5_S1_Flex_Ext	L5_S1_Lat_Bending	L5_S1_axial_rotation	L4_L5_Flex_Ext	L4_L5_Lat_Bending	L4_L5_axial_rotation	L3_L4_Flex_Ext	L3_L4_Lat_Bending	L3_L4_axial_rotation	L2_L3_Flex_Ext	L2_L3_Lat_Bending	L2_L3_axial_rotation	L1_L2_Flex_Ext	L1_L2_Lat_Bending	L1_L2_axial_rotation	L1_T12_Flex_Ext	L1_T12_Lat_Bending	L1_T12_axial_rotation	Abs_r3	Abs_r2	Abs_r1	Abs_t1	Abs_t2	neck_flexion	neck_bending	neck_rotation	arm_flex_r	arm_add_r	arm_rot_r	elbow_flex_r	pro_sup_r	wrist_flex_r	wrist_dev_r	arm_flex_l	arm_add_l	arm_rot_l	elbow_flex_l	pro_sup_l	wrist_flex_l	wrist_dev_l
      3.67796610	      4.73016911	      8.99866928	     99.18639003	      0.16675215	      0.52056968	      0.96082017	     -6.69763397	     10.25396888	     -1.99097941	     18.63731076	      0.32528244	     47.63423442	     -1.40469979	      0.00000000	     -8.15210184	     -3.42669481	     10.38398532	     19.01666719	      0.33190346	     50.06282982	     -5.98627530	      0.00000000	     -0.23237563	      0.58357332	      3.88774340	     -0.43154479	      0.77615252	      4.13072736	     -0.38176993	      1.41890018	      4.13072736	     -0.26558211	      1.41890018	      3.40177547	     -0.21578401	      1.19002272	      3.15879151	     -0.13277944	      0.90395508	      2.91580755	     -1.65983590	      6.60149816	     21.62246245	      0.00000000	      0.00000000	      6.17027152	      5.90071788	    -43.68642984	     47.71309380	    -65.93564214	     -2.13546415	    119.55120778	     84.60096500	     -3.61390685	     18.10629665	    106.27007917	     24.97333663	    181.89854327	      0.08637440	      1.09879126	    -69.76777663	    -24.25840807
      3.69491525	      4.68970144	      9.00239613	     99.32226897	      0.16708376	      0.52058068	      0.96102237	     -6.63248808	     10.26706052	     -2.07391304	     18.68933988	      0.32619052	     47.69821289	     -1.46985690	      0.00000000	     -8.20411897	     -3.48231888	     10.28760845	     18.89893750	      0.32984868	     49.98801855	     -5.81392678	      0.00000000	     -0.21817971	      0.56878580	      3.96389967	     -0.40518153	      0.75648512	      4.21164340	     -0.35844744	      1.38294580	      4.21164340	     -0.24935759	      1.38294580	      3.46841221	     -0.20260168	      1.15986801	      3.22066848	     -0.12466788	      0.88104921	      2.97292475	     -1.55843582	      6.43421876	     22.04602080	      0.00000000	      0.00000000	      5.66255645	      6.95362537	    -43.88197894	     48.61073137	    -66.25783962	     -2.40262717	    119.03984343	     84.39644468	     -3.70045056	     18.31674393	    107.10662447	     25.58398161	    181.53276863	      0.08539498	      0.99655545	    -69.77736687	    -24.25474590
      3.71186441	      4.51821904	      8.83069543	     99.12970761	      0.16807228	      0.52036005	      0.96096137	     -6.42496183	     10.07639833	     -1.89963722	     18.81635609	      0.32840737	     47.82895465	     -1.45003053	      0.00000000	     -8.21559929	     -3.35229664	      9.82147763	     18.61206391	      0.32484180	     49.88497523	     -5.49193306	      0.00000000	     -0.20138270	      0.52139122	      4.04152584	     -0.37398782	      0.69345033	      4.29412120	     -0.33085165	      1.26771062	      4.29412120	     -0.23016029	      1.26771062	      3.53633511	     -0.18700398	      1.06322098	      3.28373974	     -0.11507008	      0.80763501	      3.03114438	     -1.43845652	      5.89808180	     22.47775426	      0.00000000	      0.00000000	      6.10336814	      8.22769028	    -44.01157778	     50.13893664	    -66.34718356	     -1.90288718	    118.12164562	     83.55300335	     -4.04660027	     18.48337123	    107.94454530	     26.09307833	    180.50489225	      0.08377371	      0.95423243	    -69.78897593	    -24.27635108
      3.72881356	      4.57886850	      8.93039714	     98.66535720	      0.16899604	      0.52003446	      0.96167894	     -6.33540204	     10.13994222	     -1.29678523	     19.16691539	      0.33452578	     47.87649640	     -1.74312394	      0.00000000	     -8.33847868	     -3.57491738	      8.24745662	     18.54688719	      0.32370425	     50.23501028	     -3.97776351	      0.00000000	     -0.24335282	      0.52240152	      4.08363924	     -0.45193052	      0.69479402	      4.33886669	     -0.39980435	      1.27016705	      4.33886669	     -0.27812794	      1.27016705	      3.57318433	     -0.22597743	      1.06528118	      3.31795688	     -0.13905180	      0.80919995	      3.06272943	     -1.73824486	      5.90951046	     22.71197635	      0.00000000	      0.00000000	      6.65418839	      8.02447222	    -44.01317770	     54.12909982	    -66.67073053	      1.70884583	    116.59059048	     79.65286717	     -6.52582599	     18.30520725	    109.03002261	     26.15784297	    179.78206879	      0.08300638	      0.95804469	    -69.79826514	    -24.31437693
      3.74576271	      4.31790737	      8.66443893	     98.59773556	      0.17004858	      0.51971618	      0.96141858	     -6.07795348	      9.89966367	     -1.08068918	     19.23816784	      0.33576937	     47.95117093	     -1.86661963	      0.00000000	     -8.19734391	     -3.35660548	      7.94380586	     18.33956308	      0.32008576	     50.18570858	     -3.59277363	      0.00000000	     -0.23952136	      0.44858518	      4.05782100	     -0.44481512	      0.59661829	      4.31143482	     -0.39350964	      1.09069001	      4.31143482	     -0.27374896	      1.09069001	      3.55059338	     -0.22241954	      0.91475491	      3.29697956	     -0.13686251	      0.69485845	      3.04336575	     -1.71087713	      5.07448531	     22.56838307	      0.00000000	      0.00000000	      7.99235837	      9.08878704	    -44.09656930	     55.89254991	    -66.39505834	      2.90257850	    115.57522341	     78.44249684	     -7.58045981	     18.60167410	    109.92790559	     26.44222487	    179.44151269	      0.08131626	      0.94488764	    -69.80838262	    -24.33924969
      3.76271186	      4.44907819	      8.67798683	     98.39371997	      0.17037065	      0.51950667	      0.96168614	     -6.04360848	     10.07041819	     -0.58876424	     19.27020079	      0.33632845	     47.89297822	     -2.18533118	      0.00000000	     -8.20749032	     -3.60423680	      7.01724235	     18.27495982	      0.31895822	     50.45786997	     -2.53571652	      0.00000000	     -0.26399953	      0.45233817	      4.02647507	     -0.49027353	      0.60160977	      4.27812976	     -0.43372483	      1.09981503	      4.27812976	     -0.30172506	      1.09981503	      3.52316569	     -0.24514996	      0.92240800	      3.27151100	     -0.15084933	      0.70067183	      3.01985630	     -1.88572224	      5.11693988	     22.39404640	      0.00000000	      0.00000000	      8.97172101	      8.83904311	    -44.15043825	     59.56033303	    -66.81798199	      6.92204909	    114.88379771	     74.09031320	    -11.25517432	     19.72267164	    110.77607466	     26.51338681	    179.55036776	      0.07924224	      0.90858421	    -69.81852771	    -24.34728316
      3.77966102	      4.43414388	      8.57586360	     98.18615091	      0.17082584	      0.51947417	      0.96163800	     -5.91446455	     10.04314811	     -0.29177659	     19.30897249	      0.33700515	     47.91392124	     -2.20792909	      0.00000000	     -8.19961166	     -3.61032102	      6.57356832	     18.11409146	      0.31615054	     50.48324773	     -2.12228626	      0.00000000	     -0.27071971	      0.42810542	      4.02365111	     -0.50275358	      0.56938020	      4.27512931	     -0.44476542	      1.04089551	      4.27512931	     -0.30940556	      1.04089551	      3.52069472	     -0.25139033	      0.87299257	      3.26921653	     -0.15468925	      0.66313529	      3.01773833	     -1.93372385	      4.84281410	     22.37834039	      0.00000000	      0.00000000	     10.42696123	      9.24260248	    -44.20094237	     61.39367976	    -66.99444566	      8.91155229	    114.83519206	     71.67615643	    -13.37669698	     20.32995965	    111.35904875	     26.79771440	    179.69685748	      0.07777327	      0.90906262	    -69.82556196	    -24.36420279
